<svg width="18" height="20" viewBox="0 0 18 20" fill="none" xmlns="http://www.w3.org/2000/svg">
<path fill-rule="evenodd" clip-rule="evenodd" d="M11.6067 0.0118831C11.5637 0.00419514 11.5193 0.000183105 11.4741 0.000183105C11.4288 0.000183105 11.3844 0.00419514 11.3414 0.0118831H5.08376C2.59646 0.0118831 0.499756 2.02971 0.499756 4.49088V15.2039C0.499756 17.8045 2.50435 19.8649 5.08376 19.8649H13.0728C15.5261 19.8649 17.5518 17.703 17.5518 15.2039V6.03788C17.5518 5.84427 17.4769 5.65815 17.3428 5.51848L12.2778 0.242482C12.1364 0.095161 11.941 0.0118831 11.7368 0.0118831H11.6067ZM10.7241 1.51108L5.08376 1.51188C3.41229 1.51188 1.99976 2.87128 1.99976 4.49088V15.2039C1.99976 16.9851 3.34214 18.3649 5.08376 18.3649H13.0728C14.675 18.3649 16.0518 16.8956 16.0518 15.2039L16.0511 6.98327L15.1756 6.98625C14.842 6.98585 14.4625 6.98514 14.0405 6.98418C12.2709 6.98044 10.8268 5.59347 10.7293 3.84757L10.7241 3.65918V1.51108ZM15.2303 5.48402L14.0438 5.48419C13.0383 5.48206 12.2241 4.66564 12.2241 3.65918V2.35263L15.2303 5.48402ZM11.2841 12.8078C11.6983 12.8078 12.0341 13.1436 12.0341 13.5578C12.0341 13.9375 11.7519 14.2513 11.3858 14.3009L11.2841 14.3078H5.88706C5.47284 14.3078 5.13706 13.972 5.13706 13.5578C5.13706 13.1781 5.41921 12.8643 5.78529 12.8146L5.88706 12.8078H11.2841ZM9.99256 8.60558C9.99256 8.19137 9.65677 7.85558 9.24256 7.85558H5.88656L5.78479 7.86243C5.41871 7.91209 5.13656 8.22589 5.13656 8.60558C5.13656 9.0198 5.47234 9.35558 5.88656 9.35558H9.24256L9.34433 9.34874C9.7104 9.29907 9.99256 8.98528 9.99256 8.60558Z" fill="#4E4D4D"/>
</svg>
